<svg id="visual" viewBox="0 0 960 540" width="960" height="540" xmlns="http://www.w3.org/2000/svg" xmlns:xlink="http://www.w3.org/1999/xlink" version="1.1"><rect x="0" y="0" width="960" height="540" fill="#242424"></rect><defs><linearGradient id="grad1_0" x1="43.8%" y1="100%" x2="100%" y2="0%"><stop offset="14.444444444444446%" stop-color="#f1d3bc" stop-opacity="1"></stop><stop offset="85.55555555555554%" stop-color="#f1d3bc" stop-opacity="1"></stop></linearGradient></defs><defs><linearGradient id="grad1_1" x1="43.8%" y1="100%" x2="100%" y2="0%"><stop offset="14.444444444444446%" stop-color="#f1d3bc" stop-opacity="1"></stop><stop offset="85.55555555555554%" stop-color="#83756b" stop-opacity="1"></stop></linearGradient></defs><defs><linearGradient id="grad1_2" x1="43.8%" y1="100%" x2="100%" y2="0%"><stop offset="14.444444444444446%" stop-color="#242424" stop-opacity="1"></stop><stop offset="85.55555555555554%" stop-color="#83756b" stop-opacity="1"></stop></linearGradient></defs><defs><linearGradient id="grad2_0" x1="0%" y1="100%" x2="56.3%" y2="0%"><stop offset="14.444444444444446%" stop-color="#f1d3bc" stop-opacity="1"></stop><stop offset="85.55555555555554%" stop-color="#f1d3bc" stop-opacity="1"></stop></linearGradient></defs><defs><linearGradient id="grad2_1" x1="0%" y1="100%" x2="56.3%" y2="0%"><stop offset="14.444444444444446%" stop-color="#83756b" stop-opacity="1"></stop><stop offset="85.55555555555554%" stop-color="#f1d3bc" stop-opacity="1"></stop></linearGradient></defs><defs><linearGradient id="grad2_2" x1="0%" y1="100%" x2="56.3%" y2="0%"><stop offset="14.444444444444446%" stop-color="#83756b" stop-opacity="1"></stop><stop offset="85.55555555555554%" stop-color="#242424" stop-opacity="1"></stop></linearGradient></defs><g transform="translate(960, 540)"><path d="M-324 0C-310.4 -21.5 -296.8 -42.9 -293.5 -67C-290.1 -91 -297 -117.6 -291.9 -140.6C-286.8 -163.5 -269.8 -182.9 -250.2 -199.5C-230.6 -216.2 -208.6 -230.2 -179.6 -225.2C-150.6 -220.2 -114.7 -196.2 -94.2 -195.5C-73.6 -194.8 -68.5 -217.5 -55.4 -242.8C-42.3 -268.1 -21.1 -296 0 -324L0 0Z" fill="#514b46"></path><path d="M-216 0C-206.9 -14.3 -197.9 -28.6 -195.6 -44.7C-193.4 -60.7 -198 -78.4 -194.6 -93.7C-191.2 -109 -179.8 -121.9 -166.8 -133C-153.7 -144.1 -139 -153.4 -119.7 -150.1C-100.4 -146.8 -76.4 -130.8 -62.8 -130.3C-49.1 -129.9 -45.7 -145 -36.9 -161.8C-28.2 -178.7 -14.1 -197.4 0 -216L0 0Z" fill="#b9a392"></path><path d="M-108 0C-103.5 -7.2 -98.9 -14.3 -97.8 -22.3C-96.7 -30.3 -99 -39.2 -97.3 -46.9C-95.6 -54.5 -89.9 -61 -83.4 -66.5C-76.9 -72.1 -69.5 -76.7 -59.9 -75.1C-50.2 -73.4 -38.2 -65.4 -31.4 -65.2C-24.5 -64.9 -22.8 -72.5 -18.5 -80.9C-14.1 -89.4 -7 -98.7 0 -108L0 0Z" fill="#f1d3bc"></path></g><g transform="translate(0, 0)"><path d="M324 0C320 23.1 316.1 46.2 312 71.2C307.9 96.2 303.6 123.2 276.6 133.2C249.6 143.2 200 136.4 172 137.2C144 138 137.7 146.4 135.3 169.7C132.9 192.9 134.5 231 125 259.5C115.4 287.9 94.8 306.7 72.1 315.9C49.4 325 24.7 324.5 0 324L0 0Z" fill="#514b46"></path><path d="M216 0C213.4 15.4 210.7 30.8 208 47.5C205.2 64.1 202.4 82.1 184.4 88.8C166.4 95.5 133.3 90.9 114.7 91.4C96 92 91.8 97.6 90.2 113.1C88.6 128.6 89.7 154 83.3 173C76.9 192 63.2 204.5 48.1 210.6C32.9 216.7 16.5 216.3 0 216L0 0Z" fill="#b9a392"></path><path d="M108 0C106.7 7.7 105.4 15.4 104 23.7C102.6 32.1 101.2 41.1 92.2 44.4C83.2 47.7 66.7 45.5 57.3 45.7C48 46 45.9 48.8 45.1 56.6C44.3 64.3 44.8 77 41.7 86.5C38.5 96 31.6 102.2 24 105.3C16.5 108.3 8.2 108.2 0 108L0 0Z" fill="#f1d3bc"></path></g></svg>