<svg id="visual" viewBox="0 0 960 540" width="960" height="540" xmlns="http://www.w3.org/2000/svg" xmlns:xlink="http://www.w3.org/1999/xlink" version="1.1"><rect x="0" y="0" width="960" height="540" fill="#242424"></rect><defs><linearGradient id="grad1_0" x1="43.8%" y1="0%" x2="100%" y2="100%"><stop offset="14.444444444444446%" stop-color="#f1d3bc" stop-opacity="1"></stop><stop offset="85.55555555555554%" stop-color="#f1d3bc" stop-opacity="1"></stop></linearGradient></defs><defs><linearGradient id="grad1_1" x1="43.8%" y1="0%" x2="100%" y2="100%"><stop offset="14.444444444444446%" stop-color="#f1d3bc" stop-opacity="1"></stop><stop offset="85.55555555555554%" stop-color="#83756b" stop-opacity="1"></stop></linearGradient></defs><defs><linearGradient id="grad1_2" x1="43.8%" y1="0%" x2="100%" y2="100%"><stop offset="14.444444444444446%" stop-color="#242424" stop-opacity="1"></stop><stop offset="85.55555555555554%" stop-color="#83756b" stop-opacity="1"></stop></linearGradient></defs><defs><linearGradient id="grad2_0" x1="0%" y1="0%" x2="56.3%" y2="100%"><stop offset="14.444444444444446%" stop-color="#f1d3bc" stop-opacity="1"></stop><stop offset="85.55555555555554%" stop-color="#f1d3bc" stop-opacity="1"></stop></linearGradient></defs><defs><linearGradient id="grad2_1" x1="0%" y1="0%" x2="56.3%" y2="100%"><stop offset="14.444444444444446%" stop-color="#83756b" stop-opacity="1"></stop><stop offset="85.55555555555554%" stop-color="#f1d3bc" stop-opacity="1"></stop></linearGradient></defs><defs><linearGradient id="grad2_2" x1="0%" y1="0%" x2="56.3%" y2="100%"><stop offset="14.444444444444446%" stop-color="#83756b" stop-opacity="1"></stop><stop offset="85.55555555555554%" stop-color="#242424" stop-opacity="1"></stop></linearGradient></defs><g transform="translate(960, 0)"><path d="M0 324C-21.5 310.4 -42.9 296.8 -67 293.5C-91 290.1 -117.6 297 -140.6 291.9C-163.5 286.8 -182.9 269.8 -199.5 250.2C-216.2 230.6 -230.2 208.6 -225.2 179.6C-220.2 150.6 -196.2 114.7 -195.5 94.2C-194.8 73.6 -217.5 68.5 -242.8 55.4C-268.1 42.3 -296 21.1 -324 0L0 0Z" fill="#514b46"></path><path d="M0 216C-14.3 206.9 -28.6 197.9 -44.7 195.6C-60.7 193.4 -78.4 198 -93.7 194.6C-109 191.2 -121.9 179.8 -133 166.8C-144.1 153.7 -153.4 139 -150.1 119.7C-146.8 100.4 -130.8 76.4 -130.3 62.8C-129.9 49.1 -145 45.7 -161.8 36.9C-178.7 28.2 -197.4 14.1 -216 0L0 0Z" fill="#b9a392"></path><path d="M0 108C-7.2 103.5 -14.3 98.9 -22.3 97.8C-30.3 96.7 -39.2 99 -46.9 97.3C-54.5 95.6 -61 89.9 -66.5 83.4C-72.1 76.9 -76.7 69.5 -75.1 59.9C-73.4 50.2 -65.4 38.2 -65.2 31.4C-64.9 24.5 -72.5 22.8 -80.9 18.5C-89.4 14.1 -98.7 7 -108 0L0 0Z" fill="#f1d3bc"></path></g><g transform="translate(0, 540)"><path d="M0 -324C23.1 -320 46.2 -316.1 71.2 -312C96.2 -307.9 123.2 -303.6 133.2 -276.6C143.2 -249.6 136.4 -200 137.2 -172C138 -144 146.4 -137.7 169.7 -135.3C192.9 -132.9 231 -134.5 259.5 -125C287.9 -115.4 306.7 -94.8 315.9 -72.1C325 -49.4 324.5 -24.7 324 0L0 0Z" fill="#514b46"></path><path d="M0 -216C15.4 -213.4 30.8 -210.7 47.5 -208C64.1 -205.2 82.1 -202.4 88.8 -184.4C95.5 -166.4 90.9 -133.3 91.4 -114.7C92 -96 97.6 -91.8 113.1 -90.2C128.6 -88.6 154 -89.7 173 -83.3C192 -76.9 204.5 -63.2 210.6 -48.1C216.7 -32.9 216.3 -16.5 216 0L0 0Z" fill="#b9a392"></path><path d="M0 -108C7.7 -106.7 15.4 -105.4 23.7 -104C32.1 -102.6 41.1 -101.2 44.4 -92.2C47.7 -83.2 45.5 -66.7 45.7 -57.3C46 -48 48.8 -45.9 56.6 -45.1C64.3 -44.3 77 -44.8 86.5 -41.7C96 -38.5 102.2 -31.6 105.3 -24C108.3 -16.5 108.2 -8.2 108 0L0 0Z" fill="#f1d3bc"></path></g></svg>