<svg clip-rule="evenodd" fill-rule="evenodd" stroke-linejoin="round" stroke-miterlimit="2" viewBox="0 0 560 400" xmlns="http://www.w3.org/2000/svg"><g fill-rule="nonzero" transform="translate(160 83)"><path d="m42.5 0h155c23.5 0 42.5 19 42.5 42.5v149c0 23.5-19 42.5-42.5 42.5h-155c-23.5 0-42.5-19-42.5-42.5v-149c0-23.5 19-42.5 42.5-42.5z" fill="#001e36"/><g fill="#31a8ff"><path d="m126 165.4h-63.4c-1.1 0-1.6-.6-1.6-1.8v-102.2c-.1-.7.4-1.3 1.1-1.4h20c.5-.1 1.1.3 1.1.8v84.3h46.2c1 0 1.3.5 1.1 1.4l-2.9 17.4c0 .5-.3.9-.6 1.2-.3.2-.6.3-1 .3z"/><path d="m142 85.4h17.5c1 0 1.8.7 2.1 1.6.4.7.7 1.5.8 2.3.2 1 .4 2.1.5 3.1.1 1.1.2 2.3.2 3.6 3-3.5 6.6-6.4 10.7-8.6 4.6-2.5 9.7-3.7 14.9-3.6.7-.1 1.3.4 1.4 1.1v19.9c0 .8-.5 1.1-1.6 1.1-6.5-.4-13 .8-18.9 3.4-2 .9-3.9 2.1-5.4 3.7v51c0 1-.4 1.4-1.3 1.4h-19.5c-.8.1-1.5-.4-1.6-1.2v-55.8c0-2.4 0-4.9-.1-7.5s-.1-5.2-.2-7.8c-.1-2.2-.3-4.4-.6-6.6-.1-.5.2-1 .7-1.1.1-.1.2-.1.4 0z"/></g></g></svg>